<svg width="16" height="16" xmlns="http://www.w3.org/2000/svg">
 <g>
  <g stroke="null" id="svg_5">
   <path stroke="null" id="svg_4" fill-rule="evenodd" fill="#ffffff" d="m15.391039,15.458473c0.959906,0.275479 -0.274945,-3.147189 -0.274945,-3.147189c0.549891,-1.644333 1.094442,-7.258022 0.752763,-8.969089c-0.34168,-1.711601 -1.622978,-1.652341 -3.977364,-2.120549c-2.396562,-0.480487 -8.424003,-0.755432 -9.731996,-0.684961c-1.299984,0.067802 -2.255619,0.955635 -2.122151,2.738775c0.137206,1.777802 2.222519,8.403182 3.256634,10.047515c1.030378,1.644333 2.553521,1.357109 3.462175,1.24713c1.246063,-0.153756 5.936683,-1.24713 5.936683,-1.24713c-0.419625,-0.539213 1.738295,1.860018 2.697667,2.135497l0.000534,0zm-6.291175,-10.346485l0.834979,-1.774598l2.498532,0l-2.731301,5.201004l0,3.064439l-2.866905,0l0,-3.064439l-1.526881,-2.90748l-1.208158,-2.293524l2.498532,0l1.667823,3.536918l0.833378,-1.762319z"/>
  </g>
 </g>
</svg>