<svg id="Capa_1" xmlns="http://www.w3.org/2000/svg" xmlns:xlink="http://www.w3.org/1999/xlink" viewBox="0 0 512 512" style="enable-background:new 0 0 512 512"><path style="fill:#2d6ccf" d="M308.927 355.944H203.073c-45.69.0-82.862 37.172-82.862 82.862V504.5c0 4.142 3.358 7.5 7.5 7.5h256.578c4.142.0 7.5-3.358 7.5-7.5v-65.694C391.789 393.116 354.617 355.944 308.927 355.944z"/><path style="fill:#2159aa" d="M308.927 355.944h-26.333c45.69.0 82.862 37.172 82.862 82.862V504.5c0 4.142-3.358 7.5-7.5 7.5h26.333c4.142.0 7.5-3.358 7.5-7.5v-65.694C391.789 393.116 354.617 355.944 308.927 355.944z"/><path style="fill:#fa9e3e" d="M298.1 267.73v95.35l-18.765 19.368c-6.12 6.317-14.54 9.882-23.335 9.882v0c-8.795.0-17.215-3.566-23.335-9.882L213.9 363.08v-95.35H298.1v0z"/><path style="fill:#696970" d="M112 189.47h288V255H112z"/><g><path style="fill:#fa9e3e" d="M125.839 223.99h49.369v56.61h-49.369c-15.632.0-28.305-12.673-28.305-28.305S110.207 223.99 125.839 223.99z"/><path style="fill:#fa9e3e" d="M386.161 223.99h-49.369v56.61h49.369c15.632.0 28.305-12.673 28.305-28.305S401.793 223.99 386.161 223.99z"/></g><path style="fill:#ffb56b" d="M256 342.79v0c-61.919.0-112.115-50.195-112.115-112.115V117.281h224.229v113.394C368.115 292.595 317.919 342.79 256 342.79z"/><path style="fill:#ef9245" d="M344.781 117.281v125.062c0 53.578-41.949 97.354-94.795 100.286 1.992.105 3.996.161 6.014.161v0c61.919.0 112.115-50.195 112.115-112.115V117.281H344.781z"/><g><path style="fill:#19303f" d="M310.324 232.962c-4.142.0-7.5-3.358-7.5-7.5v-2c0-4.142 3.358-7.5 7.5-7.5s7.5 3.358 7.5 7.5v2C317.824 229.605 314.466 232.962 310.324 232.962z"/><path style="fill:#19303f" d="M201.676 232.962c-4.142.0-7.5-3.358-7.5-7.5v-2c0-4.142 3.358-7.5 7.5-7.5s7.5 3.358 7.5 7.5v2C209.176 229.605 205.818 232.962 201.676 232.962z"/><path style="fill:#19303f" d="M256 288.484c-13.494.0-26.142-6.631-33.833-17.739-2.358-3.405-1.509-8.078 1.896-10.435 3.405-2.358 8.078-1.509 10.436 1.896 4.89 7.062 12.928 11.278 21.501 11.278 8.573.0 16.61-4.216 21.5-11.278 2.358-3.405 7.029-4.254 10.436-1.896 3.405 2.358 4.254 7.03 1.896 10.435C282.142 281.853 269.494 288.484 256 288.484z"/></g><path style="fill:#ffb700" d="M269.613 14.477h-27.227c-74.377.0-134.887 60.51-134.887 134.887v33.085c0 4.142 3.358 7.5 7.5 7.5h282c4.142.0 7.5-3.358 7.5-7.5v-33.085C404.5 74.987 343.99 14.477 269.613 14.477z"/><path style="fill:#d69400" d="M269.613 14.477h-27.227c-.402.0-.8.012-1.201.015 73.825.649 133.686 60.896 133.686 134.872v33.085c0 4.142-3.358 7.5-7.5 7.5H397c4.142.0 7.5-3.358 7.5-7.5v-33.085C404.5 74.987 343.99 14.477 269.613 14.477z"/><path style="fill:#ffd100" d="M272.507.0h-33.014c-11.355.0-20.594 9.239-20.594 20.595V159.5c0 4.142 3.358 7.5 7.5 7.5h59.203c4.142.0 7.5-3.358 7.5-7.5V20.595C293.102 9.239 283.863.0 272.507.0z"/><path style="fill:#efa707" d="M256 59.046c-23.802.0-43.167 19.365-43.167 43.167s19.365 43.166 43.167 43.166 43.167-19.364 43.167-43.166S279.802 59.046 256 59.046z"/><path style="fill:#ffb700" d="M384.289 472H360.5v-94.308c0-2.408-1.156-4.669-3.108-6.08-11.042-7.977-23.644-13.012-36.945-14.86-.26-.037-.521-.073-.782-.107-.536-.069-1.073-.137-1.611-.196-.695-.077-1.393-.144-2.093-.204-.382-.032-.765-.06-1.148-.087-.709-.05-1.42-.092-2.134-.124-.293-.013-.586-.026-.879-.036-.954-.033-1.911-.056-2.873-.056H305.5 298v7.5 32.223V504.5c0 4.142 3.358 7.5 7.5 7.5h78.789c4.142.0 7.5-3.358 7.5-7.5v-25C391.789 475.358 388.431 472 384.289 472z"/><g><path style="fill:#efa707" d="M384.289 472h-18.833v32.5c0 4.142-3.358 7.5-7.5 7.5h26.333c4.142.0 7.5-3.358 7.5-7.5v-25C391.789 475.358 388.431 472 384.289 472z"/><path style="fill:#efa707" d="M360.5 410.582v-32.89c0-2.222-.994-4.31-2.679-5.729-7.227-5.3-15.333-9.466-24.066-12.215-.127-.04-.253-.081-.38-.12-1.163-.36-2.337-.693-3.521-1.002-.239-.062-.479-.119-.718-.179-.97-.244-1.947-.469-2.931-.678-.3-.063-.598-.132-.899-.192-.994-.2-1.997-.374-3.003-.538-.493-.08-.987-.158-1.482-.229-1.004-.145-2.012-.277-3.027-.386-.328-.035-.657-.065-.985-.096-.972-.092-1.949-.165-2.931-.224-.358-.021-.715-.046-1.075-.063-1.285-.06-2.576-.098-3.876-.098H305.5 298v1.459C326.952 362.871 350.633 383.431 360.5 410.582z"/></g><path style="fill:#3d5868" d="M298 413.5h62.5V462H298z"/><path style="fill:#fb403f" d="M298 428.5h62.5V447H298z"/><path style="fill:#ffb700" d="M206.5 355.944h-3.427c-17.517.0-34.276 5.418-48.465 15.669-1.952 1.41-3.108 3.672-3.108 6.08V472h-23.789c-4.142.0-7.5 3.358-7.5 7.5v25c0 4.142 3.358 7.5 7.5 7.5H206.5c4.142.0 7.5-3.358 7.5-7.5V380.333v-16.89-7.5h-7.5V355.944z"/><path style="fill:#ffd100" d="M419.143 152H92.857c-12.399.0-22.486 10.087-22.486 22.486.0 12.399 10.087 22.486 22.486 22.486h326.286c12.399.0 22.486-10.087 22.486-22.486S431.542 152 419.143 152z"/><path style="fill:#3d5868" d="M151.4 413.5h62.5V462H151.4z"/><path style="fill:#fb403f" d="M151.4 428.5h62.5V447H151.4z"/><g/><g/><g/><g/><g/><g/><g/><g/><g/><g/><g/><g/><g/><g/><g/></svg>