<?xml version="1.0" encoding="UTF-8" standalone="no"?>
<!DOCTYPE svg PUBLIC "-//W3C//DTD SVG 1.1//EN" "http://www.w3.org/Graphics/SVG/1.1/DTD/svg11.dtd">
<svg version="1.1" xmlns="http://www.w3.org/2000/svg" xmlns:xlink="http://www.w3.org/1999/xlink" preserveAspectRatio="xMidYMid meet" viewBox="0 0 640 640"><defs><path d="M608.39 168.51L609.08 168.54L609.76 168.59L610.44 168.65L611.12 168.72L611.79 168.81L612.45 168.91L613.11 169.03L613.76 169.16L614.4 169.3L615.04 169.45L615.68 169.62L616.3 169.8L616.92 169.99L617.54 170.2L618.14 170.42L618.74 170.65L619.34 170.9L619.92 171.15L620.5 171.42L621.07 171.7L621.64 172L622.19 172.31L622.74 172.62L623.28 172.96L623.81 173.3L624.34 173.65L624.85 174.02L625.36 174.4L625.86 174.79L626.35 175.2L626.83 175.61L627.3 176.04L627.76 176.48L628.21 176.93L628.66 177.39L629.09 177.86L629.51 178.34L629.93 178.84L630.33 179.34L630.72 179.85L631.09 180.37L631.45 180.9L631.8 181.43L632.14 181.97L632.46 182.52L632.77 183.07L633.07 183.63L633.35 184.2L633.62 184.77L633.87 185.35L634.12 185.94L634.35 186.53L634.56 187.12L634.76 187.72L634.95 188.33L635.12 188.94L635.28 189.56L635.43 190.18L635.57 190.8L635.68 191.44L635.79 192.07L635.88 192.71L635.96 193.35L636.02 194L636.07 194.65L636.11 195.3L636.13 195.96L636.14 196.62L636.13 197.29L636.11 197.95L636.08 198.62L636.03 199.3L635.97 199.97L635.89 200.65L635.8 201.33L635.69 202.01L635.57 202.69L635.44 203.38L587.36 436.91L587.06 438.23L586.71 439.54L586.31 440.84L585.86 442.12L585.36 443.38L584.82 444.62L584.23 445.85L583.59 447.06L582.92 448.25L582.2 449.41L581.45 450.55L580.65 451.67L579.82 452.76L578.95 453.83L578.05 454.87L577.11 455.88L576.14 456.87L575.14 457.82L574.11 458.74L573.06 459.63L571.97 460.49L570.86 461.31L569.73 462.1L568.57 462.85L567.39 463.56L566.19 464.23L564.97 464.87L563.73 465.46L562.47 466.02L561.2 466.53L559.92 466.99L558.62 467.42L557.31 467.79L555.99 468.12L554.66 468.4L553.32 468.64L551.98 468.82L550.63 468.95L549.28 469.03L547.92 469.06L193.28 469.06L192.58 469.05L191.89 469.03L191.2 469L190.52 468.95L189.84 468.89L189.17 468.81L188.5 468.72L187.84 468.62L187.18 468.51L186.53 468.38L185.88 468.24L185.24 468.08L184.61 467.91L183.98 467.73L183.36 467.54L182.75 467.33L182.14 467.12L181.54 466.88L180.95 466.64L180.36 466.38L179.78 466.11L179.21 465.83L178.65 465.54L178.09 465.23L177.54 464.91L177 464.58L176.47 464.24L175.94 463.88L175.43 463.51L174.92 463.13L174.42 462.74L173.93 462.34L173.45 461.92L172.98 461.5L172.52 461.06L172.07 460.61L171.62 460.15L171.19 459.68L170.76 459.19L170.35 458.7L169.95 458.19L169.56 457.68L169.19 457.16L168.82 456.64L168.47 456.1L168.14 455.56L167.82 455.02L167.51 454.46L167.21 453.9L166.93 453.34L166.66 452.76L166.4 452.18L166.16 451.6L165.93 451.01L165.72 450.41L165.52 449.81L165.33 449.21L165.15 448.59L164.99 447.98L164.85 447.36L164.71 446.73L164.59 446.1L164.49 445.46L164.4 444.83L164.32 444.18L164.25 443.54L164.2 442.88L164.17 442.23L164.15 441.57L164.14 440.91L164.15 440.25L164.17 439.58L164.2 438.91L164.25 438.24L164.31 437.56L164.39 436.89L164.48 436.21L164.59 435.52L164.71 434.84L164.84 434.16L212.92 200.63L213.22 199.3L213.57 197.99L213.97 196.7L214.42 195.42L214.92 194.15L215.47 192.91L216.06 191.68L216.69 190.47L217.36 189.28L218.08 188.12L218.84 186.98L219.63 185.86L220.46 184.77L221.33 183.7L222.24 182.66L223.17 181.65L224.14 180.66L225.14 179.71L226.17 178.79L227.23 177.9L228.31 177.04L229.42 176.22L230.56 175.44L231.71 174.69L232.89 173.97L234.09 173.3L235.31 172.66L236.55 172.07L237.81 171.52L239.08 171.01L240.36 170.54L241.66 170.12L242.97 169.74L244.29 169.41L245.62 169.13L246.96 168.9L248.3 168.72L249.65 168.58L251 168.5L252.36 168.48L607 168.48L607.69 168.48L608.39 168.51ZM251.19 182.6L250.04 183.09L248.92 183.58L247.83 184.08L246.76 184.58L245.72 185.08L244.71 185.58L243.73 186.08L242.77 186.59L241.84 187.1L240.93 187.61L240.05 188.12L239.2 188.64L238.37 189.15L237.57 189.67L236.8 190.2L236.06 190.72L235.34 191.25L234.64 191.77L233.98 192.31L233.34 192.84L232.73 193.37L232.14 193.91L231.58 194.45L231.05 194.99L230.54 195.54L230.07 196.08L229.61 196.63L229.19 197.18L228.79 197.74L228.42 198.29L228.07 198.85L227.75 199.41L227.46 199.97L227.19 200.54L226.95 201.1L226.74 201.67L226.55 202.24L226.4 202.82L226.26 203.39L178.19 436.91L178.12 437.29L178.05 437.67L177.99 438.04L177.94 438.41L177.9 438.79L177.86 439.16L177.83 439.53L177.81 439.89L177.79 440.26L177.79 440.62L177.79 440.98L177.79 441.34L177.81 441.69L177.83 442.05L177.86 442.4L177.9 442.75L177.94 443.09L177.99 443.43L178.05 443.77L178.12 444.11L178.19 444.44L178.27 444.77L178.36 445.1L178.45 445.42L178.56 445.75L178.67 446.06L178.78 446.38L178.9 446.69L179.03 446.99L179.17 447.3L179.32 447.59L179.47 447.89L179.63 448.18L179.79 448.47L179.96 448.75L180.14 449.03L180.33 449.3L180.52 449.57L180.72 449.83L180.93 450.09L181.14 450.35L181.36 450.6L181.59 450.84L181.82 451.08L182.06 451.31L182.3 451.54L182.54 451.76L182.8 451.97L183.06 452.18L183.32 452.38L183.59 452.58L183.86 452.77L184.14 452.95L184.42 453.13L184.71 453.3L185 453.46L185.3 453.62L185.6 453.77L185.91 453.92L186.22 454.06L186.54 454.19L186.86 454.32L187.18 454.44L187.51 454.55L187.84 454.66L188.18 454.76L188.52 454.85L188.87 454.94L189.22 455.01L189.57 455.09L189.92 455.15L190.28 455.21L190.65 455.27L191.01 455.31L191.38 455.35L191.76 455.38L192.13 455.41L192.51 455.42L192.9 455.43L193.28 455.44L547.92 455.44L548.8 455.42L549.69 455.37L550.57 455.28L551.45 455.15L552.32 455L553.19 454.81L554.06 454.59L554.92 454.33L555.78 454.05L556.63 453.74L557.47 453.39L558.3 453.02L559.11 452.63L559.92 452.2L560.72 451.75L561.5 451.27L562.27 450.77L563.03 450.25L563.76 449.7L564.49 449.13L565.19 448.54L565.88 447.92L566.54 447.29L567.19 446.64L567.81 445.97L568.42 445.28L569 444.57L569.55 443.85L570.08 443.11L570.59 442.36L571.06 441.59L571.52 440.81L571.94 440.02L572.33 439.21L572.69 438.39L573.02 437.57L573.32 436.73L573.59 435.88L573.82 435.03L574.02 434.17L622.09 200.64L622.16 200.26L622.23 199.88L622.29 199.51L622.34 199.13L622.38 198.76L622.42 198.39L622.45 198.02L622.47 197.66L622.48 197.29L622.49 196.93L622.49 196.57L622.48 196.21L622.47 195.85L622.45 195.5L622.42 195.15L622.38 194.8L622.34 194.46L622.28 194.12L622.23 193.78L622.16 193.44L622.09 193.11L622.01 192.77L621.92 192.45L621.82 192.12L621.72 191.8L621.61 191.49L621.5 191.17L621.37 190.86L621.24 190.56L621.11 190.25L620.96 189.95L620.81 189.66L620.65 189.37L620.49 189.08L620.31 188.8L620.13 188.52L619.95 188.25L619.76 187.98L619.55 187.72L619.35 187.46L619.13 187.2L618.92 186.95L618.69 186.71L618.46 186.47L618.23 186.24L617.98 186.01L617.74 185.79L617.49 185.58L617.23 185.37L616.97 185.17L616.7 184.97L616.42 184.78L616.15 184.6L615.86 184.42L615.57 184.25L615.28 184.08L614.98 183.93L614.68 183.77L614.37 183.63L614.06 183.49L613.74 183.36L613.42 183.23L613.1 183.11L612.77 183L612.44 182.89L612.1 182.79L611.76 182.7L611.41 182.61L611.07 182.53L610.71 182.46L610.36 182.4L610 182.34L609.63 182.28L609.27 182.24L608.9 182.2L608.52 182.17L608.14 182.14L607.76 182.13L607.38 182.11L607 182.11L252.36 182.11L251.19 182.6Z" id="g1wu7tvh"></path><path d="M375.67 337.41C362.93 323.99 261.06 216.6 248.32 203.17C245.88 200.6 245.97 196.51 248.57 194.08C251.13 191.64 255.23 191.72 257.67 194.32C270.4 207.74 372.28 315.13 385.01 328.55C392.54 336.42 406.27 337.68 415.03 331.23C433.76 317.46 583.57 207.32 602.3 193.55C605.14 191.45 609.18 192.04 611.3 194.93C613.4 197.8 612.79 201.82 609.92 203.93C591.2 217.7 441.38 327.83 422.65 341.6C416.59 346.06 409.2 348.22 401.79 348.22C392.11 348.22 382.42 344.54 375.67 337.41Z" id="agWyvx0fg"></path><path d="M75.6 219.91C71.81 219.91 68.73 216.83 68.73 213.04C68.73 209.25 71.81 206.17 75.6 206.17C84.64 206.17 156.99 206.17 166.03 206.17C169.82 206.17 172.9 209.25 172.9 213.04C172.9 216.83 169.82 219.91 166.03 219.91C147.94 219.91 84.64 219.91 75.6 219.91Z" id="b7s1b1c00b"></path><path d="M11.67 311.15C7.99 311.15 5 308.16 5 304.48C5 300.8 7.99 297.81 11.67 297.81C25.34 297.81 134.66 297.81 148.33 297.81C152.01 297.81 155 300.8 155 304.48C155 308.16 152.01 311.15 148.33 311.15C121 311.15 25.34 311.15 11.67 311.15Z" id="bb8K7kbwn"></path><path d="M56.14 394.03C52.34 394.03 49.26 390.95 49.26 387.15C49.26 383.36 52.34 380.28 56.14 380.28C63 380.28 117.93 380.28 124.79 380.28C128.59 380.28 131.67 383.36 131.67 387.15C131.67 390.95 128.59 394.03 124.79 394.03C111.06 394.03 63 394.03 56.14 394.03Z" id="eY85m4ss"></path></defs><g><g><g><use xlink:href="#g1wu7tvh" opacity="1" fill="#03a9f4" fill-opacity="1"></use><g><use xlink:href="#g1wu7tvh" opacity="1" fill-opacity="0" stroke="#03a9f4" stroke-width="9" stroke-opacity="1"></use></g></g><g><use xlink:href="#agWyvx0fg" opacity="1" fill="#03a9f4" fill-opacity="1"></use><g><use xlink:href="#agWyvx0fg" opacity="1" fill-opacity="0" stroke="#03a9f4" stroke-width="9" stroke-opacity="1"></use></g></g><g><use xlink:href="#b7s1b1c00b" opacity="1" fill="#03a9f4" fill-opacity="1"></use><g><use xlink:href="#b7s1b1c00b" opacity="1" fill-opacity="0" stroke="#03a9f4" stroke-width="9" stroke-opacity="1"></use></g></g><g><use xlink:href="#bb8K7kbwn" opacity="1" fill="#03a9f4" fill-opacity="1"></use><g><use xlink:href="#bb8K7kbwn" opacity="1" fill-opacity="0" stroke="#03a9f4" stroke-width="9" stroke-opacity="1"></use></g></g><g><use xlink:href="#eY85m4ss" opacity="1" fill="#03a9f4" fill-opacity="1"></use><g><use xlink:href="#eY85m4ss" opacity="1" fill-opacity="0" stroke="#03a9f4" stroke-width="9" stroke-opacity="1"></use></g></g></g></g></svg>